<svg width="1053" height="957" viewBox="0 0 1053 957" fill="none" xmlns="http://www.w3.org/2000/svg">
<path d="M278.909 917.622C344.473 983.483 500.732 954.885 567.595 910.445C784.705 766.238 1165.52 525.675 1174.73 190.762C1178.66 48.342 1051.37 -23.1795 998.43 -43.8424C871.148 -93.3469 732.845 -105.696 596.437 -108.431C453.935 -111.139 301.387 -102.527 174.945 -29.8956C127.038 -2.3811 82.056 32.3912 51.8605 79.2958C21.1504 126.742 4.11631 182.881 0.758245 239.237C-4.84757 330.122 21.8274 420.465 60.7702 502.765C99.713 585.065 150.842 660.919 197.991 738.832C228.728 789.69 223.664 862.132 278.909 917.622Z" fill="#CCD4FF"/>
</svg>
